#!OML:ASF G:\JayActor3\Patient Classification 1\Patient 1\Session 2\male.ASF
:FULLY-SPECIFIED
:DEGREES
4259
root -28.9092 16.7194 -5.08315 3587.79 85.9083 -1457
lowerback 5.92466 1.01297 -0.902097
upperback -0.371511 1.32203 0.849436
thorax -3.74699 0.68476 1.263
lowerneck 1.79241 -7.21838 -6.96948
upperneck -9.91312 -8.85419 12.7982
head -2.28417 -4.58487 5.16425
rclavicle -1.54058e-015 -4.96962e-015
rhumerus -12.0354 14.7042 -63.7496
rradius 60.7433
rwrist 2.06742
rhand -30.4979 7.90008
rfingers 7.12502
rthumb -3.79825 -22.0458
lclavicle -1.54058e-015 -4.96962e-015
lhumerus -12.3682 -9.60125 58.6883
lradius 54.3797
lwrist 16.8515
lhand -20.0958 18.9445
lfingers 7.12502
lthumb 6.24734 48.8324
rfemur -3.07863 -1.83054 17.8473
rtibia 51.2907
rfoot 5.21087 -1.19965
rtoes 21.5059
lfemur -23.9899 5.2113 -23.5566
ltibia 28.8015
lfoot -6.48358 -1.32721
ltoes 2.79899
4260
root -28.7579 16.712 -5.07896 3598.08 85.6986 -1446.1
lowerback 6.45696 1.01142 -1.83241
upperback -0.203103 1.23492 0.574471
thorax -3.88356 0.656969 1.50256
lowerneck 1.64498 -6.829 -6.71593
upperneck -9.79401 -8.33195 12.5586
head -2.30084 -4.31891 5.04409
rclavicle -2.92276e-015 1.81391e-015
rhumerus -12.185 14.6295 -64.0468
rradius 60.7234
rwrist 2.02007
rhand -30.4853 7.92696
rfingers 7.12502
rthumb -3.78611 -22.0192
lclavicle -2.92276e-015 1.81391e-015
lhumerus -12.0525 -9.35035 58.6117
lradius 54.099
lwrist 17.1374
lhand -20.5729 19.1069
lfingers 7.12502
lthumb 5.78668 49.0079
rfemur -4.72501 -1.81987 16.562
rtibia 55.1464
rfoot 6.68049 -1.32805
rtoes 18.9606
lfemur -22.6764 5.15867 -24.2697
ltibia 28.6844
lfoot -6.7763 -0.98382
ltoes 2.47125
4261
root -28.6069 16.7109 -5.0771 3604.29 85.3533 -1439.38
lowerback 6.89277 1.01203 -2.47404
upperback -0.0679687 1.16966 0.358224
thorax -3.99463 0.63568 1.64037
lowerneck 1.56191 -6.43033 -6.45966
upperneck -9.71008 -7.80105 12.2855
head -2.33851 -4.05035 4.91603
rclavicle -5.347e-015 -1.6027e-015
rhumerus -12.3308 14.6048 -64.3142
rradius 60.6759
rwrist 1.99414
rhand -30.3827 7.95212
rfingers 7.12502
rthumb -3.68699 -21.9957
lclavicle -5.347e-015 -1.6027e-015
lhumerus -11.7768 -9.18207 58.5793
lradius 53.8573
lwrist 17.5106
lhand -21.0338 19.2598
lfingers 7.12502
lthumb 5.34174 49.1725
rfemur -6.46487 -1.80976 15.569
rtibia 58.7757
rfoot 7.61225 -1.2085
rtoes 16.7448
lfemur -21.3922 5.16145 -24.7477
ltibia 28.4584
lfoot -7.10208 -0.617177
ltoes 1.99301
4262
root -28.4546 16.7164 -5.07825 3606.82 84.9527 -1436.46
lowerback 7.18553 1.0065 -2.82674
upperback 0.0296276 1.12183 0.213294
thorax -4.05968 0.617989 1.68997
lowerneck 1.50428 -6.02598 -6.19231
upperneck -9.62629 -7.26756 11.9717
head -2.38011 -3.78066 4.77346
rclavicle -1.52816e-014 4.22417e-015
rhumerus -12.4516 14.6386 -64.5517
rradius 60.591
rwrist 2.01085
rhand -30.2222 7.97498
rfingers 7.12502
rthumb -3.53208 -21.9755
lclavicle -1.52816e-014 4.22417e-015
lhumerus -11.5724 -9.05866 58.5994
lradius 53.6836
lwrist 17.9094
lhand -21.4114 19.3752
lfingers 7.12502
lthumb 4.9771 49.2968
rfemur -8.29886 -1.78053 14.8976
rtibia 62.1219
rfoot 7.94143 -0.905859
rtoes 15.277
lfemur -20.1919 5.19074 -24.9802
ltibia 28.1631
lfoot -7.42031 -0.228912
ltoes 1.38336
4263
root -28.3008 16.7273 -5.08226 3606.91 84.5364 -1436.12
lowerback 7.31659 0.990366 -2.94661
upperback 0.097311 1.08489 0.133972
thorax -4.06184 0.601031 1.6778
lowerneck 1.40991 -5.61893 -5.91045
upperneck -9.48696 -6.73709 11.6205
head -2.39788 -3.51036 4.61296
rclavicle -4.34841e-015 -4.07509e-015
rhumerus -12.5378 14.7234 -64.7546
rradius 60.4732
rwrist 2.06796
rhand -30.0459 7.98841
rfingers 7.12502
rthumb -3.36177 -21.9648
lclavicle -4.34841e-015 -4.07509e-015
lhumerus -11.4173 -8.96237 58.678
lradius 53.5679
lwrist 18.2925
lhand -21.6883 19.4654
lfingers 7.12502
lthumb 4.7098 49.3931
rfemur -10.2305 -1.72908 14.5106
rtibia 65.1716
rfoot 7.78346 -0.398248
rtoes 14.2696
lfemur -19.0788 5.21704 -25.0138
ltibia 27.8121
lfoot -7.74531 0.190065
ltoes 0.708023
4264
root -28.1456 16.7427 -5.08844 3605.84 84.1206 -1437.04
lowerback 7.31444 0.964654 -2.92547
upperback 0.142384 1.0524 0.101873
thorax -4.01104 0.583262 1.6366
lowerneck 1.2468 -5.21764 -5.61355
upperneck -9.25585 -6.22196 11.2435
head -2.37384 -3.24469 4.43675
rclavicle -7.90169e-015 5.06901e-015
rhumerus -12.612 14.8334 -64.9213
rradius 60.3393
rwrist 2.15277
rhand -29.8859 7.99201
rfingers 7.12502
rthumb -3.2073 -21.9636
lclavicle -7.90169e-015 5.06901e-015
lhumerus -11.3177 -8.90346 58.8147
lradius 53.5249
lwrist 18.6142
lhand -21.8276 19.5212
lfingers 7.12502
lthumb 4.57523 49.4518
rfemur -12.2329 -1.66668 14.3218
rtibia 67.9275
rfoot 7.248 0.303207
rtoes 13.5647
lfemur -18.0236 5.21724 -24.9329
ltibia 27.3986
lfoot -8.06838 0.64347
ltoes 0.00907316
